<svg viewBox="0 0 10.58 10.58" xmlns="http://www.w3.org/2000/svg">
  <path fill="#fbc541" d="M4.73 1 .82 2.65a.27.27 0 0 0 0 .48l3.93 1.56c.35.14.73.14 1.08 0l3.92-1.56a.27.27 0 0 0 0-.48L5.86 1a1.46 1.46 0 0 0-1.12 0"/>
  <path fill="#5fd3fc" d="M5.64 5.53v3.9c0 .18.18.3.35.24l4.39-1.7c.1-.04.16-.13.16-.25V3.83c0-.18-.18-.3-.36-.25L5.8 5.28a.27.27 0 0 0-.16.25"/>
  <path fill="#dd2c5a" d="m4.62 5.74-1.3.62-.14.06L.43 7.74C.26 7.83.04 7.7.04 7.5V3.86c0-.07.04-.13.08-.18a.3.3 0 0 1 .07-.04.28.28 0 0 1 .24-.02L4.6 5.26c.2.09.22.38.02.49"/>
  <path fill="rgba(0, 0, 0, 0.25)" d="m4.62 5.74-1.3.62-3.2-2.7a.3.3 0 0 1 .07-.03.28.28 0 0 1 .24-.02L4.6 5.25c.2.09.22.38.02.49"/>
</svg>
